<svg xmlns="http://www.w3.org/2000/svg" viewBox="0 0 500 500"><defs><style>.cls-1{fill:none;}</style></defs><title>customers_icon</title><g id="Containers"><rect class="cls-1" width="500" height="500"/></g><g id="Ebene_1" data-name="Ebene 1"><circle cx="424.34" cy="120.25" r="62.69"/><circle cx="75.66" cy="120.25" r="62.69"/><path d="M500,232.39a30,30,0,0,0-30-30H378.68a30,30,0,0,0-30,30V263a43.21,43.21,0,0,1,25.07,39.22v51.5H500Z"/><path d="M151.32,263v-30.6a30,30,0,0,0-30-30H30a30,30,0,0,0-30,30V353.71H126.25v-51.5A43.21,43.21,0,0,1,151.32,263Z"/><circle cx="250" cy="176.92" r="81.77"/><path d="M181.32,284.07H318.68a30,30,0,0,1,30,30V481.44a0,0,0,0,1,0,0H151.32a0,0,0,0,1,0,0V314.07a30,30,0,0,1,30-30Z"/></g></svg>