<svg xmlns="http://www.w3.org/2000/svg" viewBox="0 0 500 500"><title>lending_icon</title><g id="Ebene_1" data-name="Ebene 1"><path d="M172.69,26.46V200.54H354.77V26.46Zm36.36,160.25H187.18V164.84h21.87Zm0-124.55H187.18V40.28h21.87ZM252.8,186.71H230.93V164.84H252.8Zm0-124.55H230.93V40.28H252.8Zm43.74,124.55H274.67V164.84h21.87Zm0-124.55H274.67V40.28h21.87Zm43.74,124.55H318.41V164.84h21.87Zm0-124.55H318.41V40.28h21.87Z"/><path d="M37,339.43l88-88a60.19,60.19,0,0,1,42.59-17.64H314.46A20.49,20.49,0,0,1,335,254.29v1.54a20.49,20.49,0,0,1-20.49,20.48H243.21v12.2H366.93l73.12-73.12a20.49,20.49,0,0,1,29,0h0a20.48,20.48,0,0,1,0,29l-90,90a38.89,38.89,0,0,1-27.47,11.38H171.69a33.22,33.22,0,0,0-23.51,9.74L37.07,466.59Z"/></g></svg>