<svg id="Ebene_1" data-name="Ebene 1" xmlns="http://www.w3.org/2000/svg" viewBox="0 0 500 500"><defs><style>.cls-1{fill:#e52522;}.cls-2{fill:#fff;}</style></defs><title>placeholder_icon</title><rect class="cls-1" width="500" height="500" rx="59.41" ry="59.41"/><path class="cls-2" d="M226.59,332.67,225.54,319c-3.15-28.33,6.29-59.28,32.52-90.75,23.61-27.81,36.72-48.26,36.72-71.87,0-26.75-16.78-44.59-49.83-45.11-18.89,0-39.87,6.29-53,16.26l-12.59-33c17.31-12.59,47.21-21,75-21,60.33,0,87.6,37.24,87.6,77.11,0,35.67-19.93,61.37-45.11,91.28C273.8,269.19,265.41,292.27,267,319l.52,13.64ZM215.05,406.1c0-19.4,13.11-33,31.47-33s31,13.64,31,33c0,18.36-12.06,32.53-31.47,32.53C227.64,438.63,215.05,424.46,215.05,406.1Z"/></svg>