<?xml version="1.0" standalone="no"?>
<!DOCTYPE svg PUBLIC "-//W3C//DTD SVG 20010904//EN"
 "http://www.w3.org/TR/2001/REC-SVG-20010904/DTD/svg10.dtd">
<svg version="1.0" xmlns="http://www.w3.org/2000/svg"
 width="700.000000pt" height="700.000000pt" viewBox="0 0 700.000000 700.000000"
 preserveAspectRatio="xMidYMid meet">
<metadata>
Created by potrace 1.11, written by Peter Selinger 2001-2013
</metadata>
<g transform="translate(0.000000,700.000000) scale(0.100000,-0.100000)"
fill="#000000" stroke="none">
<path d="M0 3500 l0 -3500 3500 0 3500 0 0 3500 0 3500 -3500 0 -3500 0 0
-3500z m2292 1748 c102 -238 423 -992 714 -1676 342 -805 532 -1238 537 -1230
5 7 331 760 726 1673 l717 1660 543 3 c298 1 540 -1 538 -5 -2 -5 -460 -1062
-1018 -2351 l-1013 -2342 -539 2 -539 3 -840 1945 c-461 1070 -917 2126 -1013
2348 l-173 402 588 0 588 0 184 -432z"/>
</g>
</svg>
